# xmcd
#
# Track frame offsets: 
#        150
#        13289
#        27412
#        43044
#        55870
#        67146
#        82342
#        97947
#        112567
#        120878
#        135691
#        149417
#        162495
#        176044
#
# Disc length: 2522 seconds
#
# Revision: 0
# Processed by: cddbd v1.5.1PL0 Copyright (c) Steve Scherf et al.
# Submitted via: ExactAudioCopy v0.95a5
#
DISCID=c209d80e
DTITLE=Billie Holiday - The Jazz Singer
DYEAR=2001
DGENRE=Blues
TTITLE0=Summertime
TTITLE1=Carelessy
TTITLE2=Stormy Weather
TTITLE3=A Fine Romance
TTITLE4=I Loves You Porgy
TTITLE5=Loverman
TTITLE6=I Can't Give You Anything But Love
TTITLE7=Fine And Mellow
TTITLE8=Lover Come Back To Me
TTITLE9=Pennies From Heaven
TTITLE10=My Man
TTITLE11=That Ole Devil Called Love
TTITLE12=The Mood That I'm In
TTITLE13=I Cover The Waterfront
EXTD=
EXTT0=
EXTT1=
EXTT2=
EXTT3=
EXTT4=
EXTT5=
EXTT6=
EXTT7=
EXTT8=
EXTT9=
EXTT10=
EXTT11=
EXTT12=
EXTT13=
PLAYORDER=
